<?xml version="1.0" encoding="UTF-8" standalone="no"?>
<!-- Created with Inkscape (http://www.inkscape.org/) -->

<svg
   xmlns:osb="http://www.openswatchbook.org/uri/2009/osb"
   xmlns:dc="http://purl.org/dc/elements/1.1/"
   xmlns:cc="http://creativecommons.org/ns#"
   xmlns:rdf="http://www.w3.org/1999/02/22-rdf-syntax-ns#"
   xmlns:svg="http://www.w3.org/2000/svg"
   xmlns="http://www.w3.org/2000/svg"
   xmlns:sodipodi="http://sodipodi.sourceforge.net/DTD/sodipodi-0.dtd"
   xmlns:inkscape="http://www.inkscape.org/namespaces/inkscape"
   preserveAspectRatio="xMinYMin meet"
   viewBox="0 0 350 190"
   id="svg2"
   version="1.1"
   inkscape:version="0.48.2 r9819"
   sodipodi:docname="jaxologo-circle.svg"
   width="100%"
   height="100%">
  <defs
     id="defs4">
    <linearGradient
       id="linearGradient4022"
       osb:paint="gradient">
      <stop
         style="stop-color:#fc0000;stop-opacity:1;"
         offset="0"
         id="stop4024" />
      <stop
         style="stop-color:#fc0000;stop-opacity:0;"
         offset="1"
         id="stop4026" />
    </linearGradient>
  </defs>
  <sodipodi:namedview
     id="base"
     pagecolor="#ffffff"
     bordercolor="#666666"
     borderopacity="1.0"
     inkscape:pageopacity="0.0"
     inkscape:pageshadow="2"
     inkscape:zoom="1"
     inkscape:cx="102.66351"
     inkscape:cy="157.56459"
     inkscape:document-units="px"
     inkscape:current-layer="layer3"
     showgrid="true"
     inkscape:object-paths="false"
     inkscape:object-nodes="false"
     inkscape:snap-smooth-nodes="true"
     inkscape:snap-midpoints="false"
     inkscape:snap-intersection-paths="true"
     inkscape:snap-nodes="false"
     inkscape:window-width="1440"
     inkscape:window-height="786"
     inkscape:window-x="0"
     inkscape:window-y="0"
     inkscape:window-maximized="1"
     fit-margin-top="0"
     fit-margin-left="0"
     fit-margin-right="0"
     fit-margin-bottom="0">
    <inkscape:grid
       type="xygrid"
       id="grid3267" />
  </sodipodi:namedview>
  <metadata
     id="metadata7">
    <rdf:RDF>
      <cc:Work
         rdf:about="">
        <dc:format>image/svg+xml</dc:format>
        <dc:type
           rdf:resource="http://purl.org/dc/dcmitype/StillImage" />
        <dc:title></dc:title>
      </cc:Work>
    </rdf:RDF>
  </metadata>
  <g
     inkscape:groupmode="layer"
     id="layer2"
     inkscape:label="Circle"
     style="display:inline"
     transform="translate(-2.38236,1.9042337)">
    <path
       transform="translate(-33.61764,-44.904229)"
       d="m 387,112 c 0,96.64983 -78.35017,175 -175,175 -96.64983,0 -175,-78.35017 -175,-175 0,-96.649831 78.35017,-175 175,-175 96.64983,0 175,78.350169 175,175 z"
       sodipodi:ry="175"
       sodipodi:rx="175"
       sodipodi:cy="112"
       sodipodi:cx="212"
       id="path7216"
       style="fill:#3d84bc;stroke:#3d84bc;stroke-width:5;stroke-linecap:square;stroke-miterlimit:4;stroke-opacity:1;stroke-dasharray:none;fill-opacity:1"
       sodipodi:type="arc" />
  </g>
  <g
     inkscape:groupmode="layer"
     id="layer3"
     inkscape:label="Jaxo">
    <g
       id="g3044"
       transform="translate(62.97213,0)">
      <g
         style="stroke:#ffffff;stroke-width:5;stroke-linecap:round;stroke-linejoin:round;stroke-miterlimit:4;stroke-opacity:1;stroke-dasharray:none;display:inline"
         id="g3992"
         transform="translate(-174.60658,-128.75262)">
        <path
           style="fill:none;stroke:#ffffff;stroke-width:5;stroke-linecap:round;stroke-linejoin:round;stroke-miterlimit:4;stroke-opacity:1;stroke-dasharray:none"
           d="m 179.62858,221.88154 c 0,0 5.39317,-5.91434 8.25979,-8.70359 3.61765,-3.52002 7.41168,-6.85898 11.26487,-10.11947 3.98995,-3.37621 8.05738,-6.66837 12.2645,-9.76976 3.96058,-2.91965 8.05995,-5.65098 12.20106,-8.30838 3.5871,-2.30189 7.25777,-4.47287 10.9458,-6.60932 3.32672,-1.92715 6.6676,-3.83504 10.08358,-5.59917 4.71839,-2.43674 9.51255,-4.73201 14.36929,-6.8798 5.26438,-2.32805 10.62329,-4.44039 15.99656,-6.50472 4.84717,-1.86221 9.70338,-3.71542 14.64721,-5.3033 5.32841,-1.7114 10.71158,-3.27723 16.16244,-4.54569 2.25133,-0.5239 4.52503,-0.97488 6.81853,-1.26269 1.25565,-0.15757 2.52311,-0.28909 3.78808,-0.25253 0.67839,0.0196 1.43731,-0.0949 2.0203,0.25253 0.62205,0.37072 0.92929,1.12495 1.26269,1.76777 0.82125,1.58342 1.27379,3.3368 1.76777,5.05076 1.07845,3.74193 1.85857,7.56669 2.60114,11.38947 0.70883,3.64902 1.23764,7.33144 1.76776,11.01067 0.72978,5.06493 1.42189,10.13758 1.94455,15.22805 0.77614,7.55928 1.32703,15.1422 1.76777,22.72843 0.50814,8.74638 0.96869,17.50294 1.01015,26.26396 0.0275,5.81076 -0.0997,11.62848 -0.50508,17.42514 -0.31906,4.56251 -0.90322,9.10452 -1.51522,13.63705 -0.50185,3.71675 -1.01076,7.4384 -1.76777,11.11168 -0.55221,2.67952 -1.17372,5.3534 -2.02031,7.95495 -0.77152,2.37089 -1.67001,4.71122 -2.77792,6.9448 -1.5268,3.07806 -3.18879,6.13063 -5.3033,8.83884 -1.02569,1.31367 -2.23123,2.49795 -3.53553,3.53553 -1.24296,0.98879 -2.59563,1.86606 -4.04061,2.52538 -1.12145,0.5117 -2.3279,0.83691 -3.53553,1.08412 -1.327,0.27164 -2.68705,0.38029 -4.04061,0.43111 -2.69316,0.10111 -5.41688,0.15312 -8.08123,-0.25254 -1.55468,-0.23671 -3.08481,-0.68053 -4.54568,-1.26269 -1.54131,-0.61421 -3.02655,-1.39731 -4.39775,-2.33149 -1.28279,-0.87394 -2.51205,-1.8635 -3.53554,-3.03045 -1.17737,-1.3424 -2.14953,-2.87907 -2.92585,-4.48704 -0.81016,-1.67806 -1.42544,-3.47163 -1.76777,-5.30331 -0.55283,-2.95802 -0.61608,-6.01386 -0.43111,-9.0174 0.14331,-2.32701 0.51146,-4.66162 1.18873,-6.8925 0.99454,-3.27594 2.5405,-6.37577 4.17585,-9.38352 3.21541,-5.91382 7.04732,-11.4884 11.0213,-16.9216 4.41908,-6.04173 9.23235,-11.79851 14.21981,-17.38026 4.70131,-5.26149 9.70157,-10.25462 14.77721,-15.156 2.70061,-2.60789 5.51382,-5.09777 8.33376,-7.57615 5.19622,-4.56683 10.41684,-9.11243 15.81654,-13.43678 5.11439,-4.09586 10.40529,-7.96799 15.69262,-11.83802 4.5876,-3.35787 9.22168,-6.65347 13.9069,-9.87373 4.64706,-3.19403 9.41043,-6.21577 14.08549,-9.36866 2.20172,-1.48486 4.36653,-3.02423 6.5765,-4.49678"
           id="path3082"
           inkscape:connector-curvature="0"
           sodipodi:nodetypes="caaaaaaaaaaaaaaaaaaaaaaaaaaaaaaaaaaaaaaaaaaaaaaac" />
      </g>
      <path
         transform="translate(-151.30206,-132.37654)"
         d="m 328.00917,137.80795 c 0,0.34171 -0.31658,0.61872 -0.70711,0.61872 -0.39052,0 -0.7071,-0.27701 -0.7071,-0.61872 0,-0.34171 0.31658,-0.61872 0.7071,-0.61872 0.39053,0 0.70711,0.27701 0.70711,0.61872 z"
         sodipodi:ry="0.61871845"
         sodipodi:rx="0.70710677"
         sodipodi:cy="137.80795"
         sodipodi:cx="327.30206"
         id="path4015"
         style="fill:#ffffff;fill-opacity:1;stroke:#ffffff;stroke-width:5;stroke-linecap:round;stroke-linejoin:round;stroke-miterlimit:4;stroke-opacity:1;stroke-dasharray:none;display:inline"
         sodipodi:type="arc" />
    </g>
  </g>
</svg>
